<svg xmlns="http://www.w3.org/2000/svg" xmlns:xlink="http://www.w3.org/1999/xlink" viewBox="0 0 1920 1080"><defs><style>.cls-1{isolation:isolate;}.cls-2{fill:url(#Áĺçűě_ííűé_ăđŕäčĺíň_245);}.cls-3,.cls-4,.cls-5,.cls-6,.cls-7,.cls-8,.cls-9{fill-rule:evenodd;mix-blend-mode:multiply;opacity:0.5;}.cls-3{fill:url(#Áĺçűě_ííűé_ăđŕäčĺíň_263);}.cls-4{fill:url(#Áĺçűě_ííűé_ăđŕäčĺíň_263-2);}.cls-5{fill:url(#Áĺçűě_ííűé_ăđŕäčĺíň_263-3);}.cls-6{fill:url(#Áĺçűě_ííűé_ăđŕäčĺíň_264);}.cls-7{fill:url(#Áĺçűě_ííűé_ăđŕäčĺíň_264-2);}.cls-8{fill:url(#Áĺçűě_ííűé_ăđŕäčĺíň_264-3);}.cls-9{fill:url(#Áĺçűě_ííűé_ăđŕäčĺíň_263-4);}.cls-10{fill:#6dcaff;}</style><linearGradient id="Áĺçűě_ííűé_ăđŕäčĺíň_245" x1="1005.52" y1="1166.52" x2="1005.52" y2="-116.7" gradientUnits="userSpaceOnUse"><stop offset="0" stop-color="#0b7fab"/><stop offset="0.13" stop-color="#1467a4"/><stop offset="0.41" stop-color="#2a2992"/><stop offset="0.51" stop-color="#33118b"/><stop offset="0.99" stop-color="#000032"/></linearGradient><linearGradient id="Áĺçűě_ííűé_ăđŕäčĺíň_263" x1="-297.91" y1="692.78" x2="2856.68" y2="692.78" gradientUnits="userSpaceOnUse"><stop offset="0" stop-color="#fff"/><stop offset="0.17" stop-color="#ece7fa"/><stop offset="0.52" stop-color="#bba9ee"/><stop offset="1" stop-color="#724ddb"/></linearGradient><linearGradient id="Áĺçűě_ííűé_ăđŕäčĺíň_263-2" x1="200.24" y1="633.37" x2="2616.95" y2="633.37" xlink:href="#Áĺçűě_ííűé_ăđŕäčĺíň_263"/><linearGradient id="Áĺçűě_ííűé_ăđŕäčĺíň_263-3" x1="-525.82" y1="841.01" x2="2719.88" y2="841.01" xlink:href="#Áĺçűě_ííűé_ăđŕäčĺíň_263"/><linearGradient id="Áĺçűě_ííűé_ăđŕäčĺíň_264" x1="-845.74" y1="253.53" x2="2245.05" y2="253.53" gradientUnits="userSpaceOnUse"><stop offset="0" stop-color="#724ddb"/><stop offset="0.48" stop-color="#bba9ee"/><stop offset="0.83" stop-color="#ece7fa"/><stop offset="1" stop-color="#fff"/></linearGradient><linearGradient id="Áĺçűě_ííűé_ăđŕäčĺíň_264-2" x1="-543.58" y1="155.12" x2="1352.57" y2="155.12" xlink:href="#Áĺçűě_ííűé_ăđŕäčĺíň_264"/><linearGradient id="Áĺçűě_ííűé_ăđŕäčĺíň_264-3" x1="-73.59" y1="155.12" x2="1352.57" y2="155.12" xlink:href="#Áĺçűě_ííűé_ăđŕäčĺíň_264"/><linearGradient id="Áĺçűě_ííűé_ăđŕäčĺíň_263-4" x1="1321.78" y1="372.15" x2="2813.37" y2="372.15" xlink:href="#Áĺçűě_ííűé_ăđŕäčĺíň_263"/></defs><g class="cls-1"><g id="Ebene_1" data-name="Ebene 1"><rect class="cls-2" x="-845.63" y="-116.7" width="3702.31" height="1283.22"/><path class="cls-3" d="M-297.91,590.61s1106.73,141,1910.83,177.46,1243.76,25.26,1243.76,25.26V692.79S1880.2,733-297.91,590.61Z"/><path class="cls-4" d="M2617,669.87S1101.68,629.21,200.24,590.61C200.24,590.61,1721.58,703.54,2617,669.87Z"/><path class="cls-5" d="M2719.88,886.86S420.62,795-525.82,795C-525.82,795,1771.05,892.05,2719.88,886.86Z"/><path class="cls-6" d="M-845.74,136.73s1519.31,449.35,3090.79,487c0,0-1358.79-91.78-3090.79-740.46Z"/><path class="cls-7" d="M-543.58-116.7S363.54,275.42,1352.57,426.94c0,0-591.59-114.37-1426.16-543.64Z"/><path class="cls-8" d="M-73.59-116.7S583,231.78,1352.57,426.94C1352.57,426.94,466.33,234.76-73.59-116.7Z"/><path class="cls-9" d="M2813.37,394.88S1939.81,384.1,1321.78,294.31c0,0,349.43,114.81,745.79,149.68C2381.71,471.62,2813.37,394.88,2813.37,394.88Z"/><path class="cls-10" d="M451.67,262.27c2.84,0,2.84-4.41,0-4.41S448.83,262.27,451.67,262.27Z"/><path class="cls-10" d="M601.32,451.2c2.84,0,2.84-4.41,0-4.41S598.48,451.2,601.32,451.2Z"/><path class="cls-10" d="M1517.93,215.19a0,0,0,1,0,0,0S1517.91,215.19,1517.93,215.19Z"/><path class="cls-10" d="M1489.87,372.32a0,0,0,1,0,0,0S1489.85,372.32,1489.87,372.32Z"/><path class="cls-10" d="M593.5,248.68c2.83,0,2.84-4.41,0-4.41S590.65,248.68,593.5,248.68Z"/><path class="cls-10" d="M1403.83,471.78c2.83,0,2.84-4.41,0-4.41S1401,471.78,1403.83,471.78Z"/><path class="cls-10" d="M1921.06,330.55c2.83,0,2.84-4.41,0-4.41S1918.22,330.55,1921.06,330.55Z"/><path class="cls-10" d="M1859.33,644.81c2.83,0,2.84-4.4,0-4.4S1856.49,644.81,1859.33,644.81Z"/><path class="cls-10" d="M341.3,762.66c2.84,0,2.84-4.4,0-4.4S338.46,762.66,341.3,762.66Z"/><path class="cls-10" d="M1115.75,94.85c2.83,0,2.84-4.41,0-4.41S1112.91,94.85,1115.75,94.85Z"/><path class="cls-10" d="M555.13,212.61c2.83,0,2.84-4.41,0-4.41S552.29,212.61,555.13,212.61Z"/><path class="cls-10" d="M1719,5.06c2.84,0,2.84-4.41,0-4.41S1716.19,5.06,1719,5.06Z"/><path class="cls-10" d="M1674.13,771.08c2.84,0,2.84-4.41,0-4.41S1671.29,771.08,1674.13,771.08Z"/><path class="cls-10" d="M1202.73,975.92c2.84,0,2.84-4.41,0-4.41S1199.89,975.92,1202.73,975.92Z"/><path class="cls-10" d="M273.28,162.94c2.84,0,2.84-4.41,0-4.41S270.44,162.94,273.28,162.94Z"/><path class="cls-10" d="M144.88,860.87c2.84,0,2.85-4.41,0-4.41S142,860.87,144.88,860.87Z"/><path class="cls-10" d="M274,383.86c2.84,0,2.84-4.41,0-4.41S271.12,383.86,274,383.86Z"/><path class="cls-10" d="M7.39,931c2.84,0,2.84-4.41,0-4.41S4.55,931,7.39,931Z"/><path class="cls-10" d="M568.88,176c2.83,0,2.84-4.4,0-4.4S566,176,568.88,176Z"/><path class="cls-10" d="M284.57,199.21c2.84,0,2.84-4.41,0-4.41S281.73,199.21,284.57,199.21Z"/><path class="cls-10" d="M409.36,201.78s0,0,0,0S409.34,201.76,409.36,201.78Z"/><path class="cls-10" d="M504.36,448.85c2,2,5.12-1.13,3.1-3.13S502.34,446.86,504.36,448.85Z"/><path class="cls-10" d="M1334.28,1078.57c2.84,0,2.84-4.41,0-4.41S1331.44,1078.57,1334.28,1078.57Z"/><path class="cls-10" d="M868.82,936.63c2.84,0,2.84-4.4,0-4.4S866,936.63,868.82,936.63Z"/><path class="cls-10" d="M661.18,521.35c2.84,0,2.84-4.41,0-4.41S658.34,521.35,661.18,521.35Z"/><path class="cls-10" d="M863.21,372.64c2.84,0,2.84-4.41,0-4.41S860.37,372.64,863.21,372.64Z"/><path class="cls-10" d="M652.76,83.62c2.84,0,2.84-4.41,0-4.41S649.92,83.62,652.76,83.62Z"/><path class="cls-10" d="M167.33,128.52c2.84,0,2.84-4.41,0-4.41S164.49,128.52,167.33,128.52Z"/><path class="cls-10" d="M147.69,310.9c2.84,0,2.84-4.4,0-4.4S144.85,310.9,147.69,310.9Z"/><path class="cls-10" d="M66.32,221.11c2.83,0,2.84-4.4,0-4.4S63.48,221.11,66.32,221.11Z"/><path class="cls-10" d="M1637.66,229.53c2.83,0,2.84-4.41,0-4.41S1634.81,229.53,1637.66,229.53Z"/><path class="cls-10" d="M1676.94,411.92c2.84,0,2.84-4.41,0-4.41S1674.1,411.92,1676.94,411.92Z"/><path class="cls-10" d="M1550.67,580.28c2.84,0,2.84-4.41,0-4.41S1547.83,580.28,1550.67,580.28Z"/><path class="cls-10" d="M1275.69,552.22c2.83,0,2.84-4.41,0-4.41S1272.85,552.22,1275.69,552.22Z"/><path class="cls-10" d="M1503.62,339.62c-.09-2.83-4.5-2.68-4.4.16S1503.72,342.46,1503.62,339.62Z"/><path class="cls-10" d="M1496.08,396.72c-.09-2.84-4.5-2.69-4.4.15S1496.18,399.56,1496.08,396.72Z"/><path class="cls-10" d="M1421.6,184.64c2.83,0,2.84-4.41,0-4.41S1418.76,184.64,1421.6,184.64Z"/><path class="cls-10" d="M1483.33,52.76c2.83,0,2.84-4.41,0-4.41S1480.49,52.76,1483.33,52.76Z"/><path class="cls-10" d="M1907,103.26c2.83,0,2.84-4.4,0-4.4S1904.19,103.26,1907,103.26Z"/><path class="cls-10" d="M1825.66,324.93c2.83,0,2.84-4.4,0-4.4S1822.81,324.93,1825.66,324.93Z"/><path class="cls-10" d="M1876.16,956.28c2.84,0,2.84-4.41,0-4.41S1873.32,956.28,1876.16,956.28Z"/><path class="cls-10" d="M1890.19,1062.9c2.84,0,2.84-4.41,0-4.41S1887.35,1062.9,1890.19,1062.9Z"/><path class="cls-10" d="M1713.42,1062.9c2.83,0,2.84-4.41,0-4.41S1710.57,1062.9,1713.42,1062.9Z"/><path class="cls-10" d="M1348.64,821.59c2.84,0,2.84-4.41,0-4.41S1345.8,821.59,1348.64,821.59Z"/><path class="cls-10" d="M1101.72,672.87c2.83,0,2.84-4.4,0-4.4S1098.88,672.87,1101.72,672.87Z"/><path class="cls-10" d="M703.27,717.77c2.84,0,2.84-4.41,0-4.41S700.43,717.77,703.27,717.77Z"/><path class="cls-10" d="M534.91,583.08c2.84,0,2.84-4.41,0-4.41S532.07,583.08,534.91,583.08Z"/><path class="cls-10" d="M624.7,810.36c2.84,0,2.84-4.4,0-4.4S621.86,810.36,624.7,810.36Z"/><path class="cls-10" d="M635.93,686.9c2.83,0,2.84-4.41,0-4.41S633.09,686.9,635.93,686.9Z"/><path class="cls-10" d="M314.85,257.4c2,2,5.12-1.14,3.1-3.14S312.83,255.4,314.85,257.4Z"/><path class="cls-10" d="M412.48,334.26c2,2,5.12-1.13,3.1-3.13S410.46,332.26,412.48,334.26Z"/><path class="cls-10" d="M324.47,630.78c2.83,0,2.84-4.4,0-4.4S321.62,630.78,324.47,630.78Z"/><path class="cls-10" d="M181.36,628c2.84,0,2.84-4.41,0-4.41S178.52,628,181.36,628Z"/><path class="cls-10" d="M860.4,462.43c2.84,0,2.85-4.41,0-4.41S857.56,462.43,860.4,462.43Z"/><path class="cls-10" d="M722.91,249.17c2.84,0,2.84-4.4,0-4.4S720.07,249.17,722.91,249.17Z"/><path class="cls-10" d="M1143.81,353c2.83,0,2.84-4.4,0-4.4S1141,353,1143.81,353Z"/><path class="cls-10" d="M1547.87,282.85c2.83,0,2.84-4.41,0-4.41S1545,282.85,1547.87,282.85Z"/><path class="cls-10" d="M880.77,717.77c2.84,0,2.84-4.41,0-4.41S877.93,717.77,880.77,717.77Z"/><path class="cls-10" d="M1007.17,482.71c2.84,0,2.85-4.41,0-4.41S1004.33,482.71,1007.17,482.71Z"/><path class="cls-10" d="M1916.53,317.62c2.84,0,2.85-4.41,0-4.41S1913.69,317.62,1916.53,317.62Z"/><path class="cls-10" d="M687.63,201.58c2.83,0,2.84-4.41,0-4.41S684.79,201.58,687.63,201.58Z"/><path class="cls-10" d="M683.42,138.45c2.84,0,2.84-4.41,0-4.41S680.58,138.45,683.42,138.45Z"/><path class="cls-10" d="M1919.34,351.29c2.84,0,2.84-4.4,0-4.4S1916.5,351.29,1919.34,351.29Z"/><path class="cls-10" d="M1891.28,378c2.84,0,2.84-4.41,0-4.41S1888.44,378,1891.28,378Z"/><path class="cls-10" d="M1917.21,384.16c2.84,0,2.84-4.4,0-4.4S1914.37,384.16,1917.21,384.16Z"/><path class="cls-10" d="M707.27,180.54c2.84,0,2.84-4.41,0-4.41S704.43,180.54,707.27,180.54Z"/><path class="cls-10" d="M840.76,644.81c2.84,0,2.84-4.4,0-4.4S837.92,644.81,840.76,644.81Z"/><path class="cls-10" d="M763.6,700.93c2.84,0,2.84-4.41,0-4.41S760.76,700.93,763.6,700.93Z"/><path class="cls-10" d="M613.48,790.72c2.84,0,2.84-4.4,0-4.4S610.64,790.72,613.48,790.72Z"/><path class="cls-10" d="M638.73,747.23c2.84,0,2.84-4.41,0-4.41S635.89,747.23,638.73,747.23Z"/><path class="cls-10" d="M588.23,771.08c2.83,0,2.84-4.41,0-4.41S585.39,771.08,588.23,771.08Z"/><path class="cls-10" d="M561.57,810.36c2.84,0,2.84-4.4,0-4.4S558.73,810.36,561.57,810.36Z"/><path class="cls-10" d="M504,187.94c2,2,5.12-1.13,3.1-3.13S502,185.94,504,187.94Z"/><path class="cls-10" d="M476.24,198c2,2,5.12-1.14,3.1-3.13S474.22,196,476.24,198Z"/><path class="cls-10" d="M475.36,218.85c2,2,5.12-1.14,3.1-3.14S473.34,216.85,475.36,218.85Z"/><path class="cls-10" d="M499.17,218.72c2,2,5.12-1.13,3.1-3.13S497.15,216.72,499.17,218.72Z"/><path class="cls-10" d="M495.13,204.85c2,2,5.12-1.13,3.1-3.13S493.11,202.86,495.13,204.85Z"/><path class="cls-10" d="M429.67,209.17c2,2,5.12-1.14,3.1-3.13S427.65,207.17,429.67,209.17Z"/><path class="cls-10" d="M392.78,174.64c2,2,5.12-1.13,3.11-3.13S390.77,172.64,392.78,174.64Z"/><path class="cls-10" d="M346.22,185.8c2,2,5.12-1.13,3.1-3.13S344.2,183.8,346.22,185.8Z"/><path class="cls-10" d="M310.44,967.5c2.83,0,2.84-4.41,0-4.41S307.59,967.5,310.44,967.5Z"/><path class="cls-10" d="M190,172.39c2.84,0,2.84-4.41,0-4.41S187.19,172.39,190,172.39Z"/><path class="cls-10" d="M231.24,174c2.83,0,2.84-4.4,0-4.4S228.4,174,231.24,174Z"/><path class="cls-10" d="M25.18,78.46c2.84,0,2.84-4.41,0-4.41S22.34,78.46,25.18,78.46Z"/><path class="cls-10" d="M1768.6,358c2.84,0,2.84-4.41,0-4.41S1765.76,358,1768.6,358Z"/><path class="cls-10" d="M319.63,204.78c2.84,0,2.84-4.41,0-4.41S316.79,204.78,319.63,204.78Z"/><path class="cls-10" d="M323.06,903c2.84,0,2.84-4.41,0-4.41S320.22,903,323.06,903Z"/><path class="cls-10" d="M275.36,946.45c2.84,0,2.84-4.4,0-4.4S272.52,946.45,275.36,946.45Z"/><path class="cls-10" d="M322.25,156.17c2,2,5.12-1.14,3.1-3.14S320.23,154.17,322.25,156.17Z"/><path class="cls-10" d="M1087.69,400.7c2.83,0,2.84-4.41,0-4.41S1084.85,400.7,1087.69,400.7Z"/><path class="cls-10" d="M1273.3,429.14c2.84,0,2.84-4.41,0-4.41S1270.46,429.14,1273.3,429.14Z"/><path class="cls-10" d="M795.66,289.92c2.83,0,2.84-4.41,0-4.41S792.82,289.92,795.66,289.92Z"/><path class="cls-10" d="M1238.05,280c2.84,0,2.84-4.41,0-4.41S1235.21,280,1238.05,280Z"/><path class="cls-10" d="M1003.51,353c2.83,0,2.84-4.4,0-4.4S1000.67,353,1003.51,353Z"/><path class="cls-10" d="M1030.17,411.92c2.83,0,2.84-4.41,0-4.41S1027.32,411.92,1030.17,411.92Z"/><path class="cls-10" d="M1072.25,479.26c2.84,0,2.85-4.41,0-4.41S1069.41,479.26,1072.25,479.26Z"/><path class="cls-10" d="M547.33,246.48c2.83,0,2.84-4.41,0-4.41S544.49,246.48,547.33,246.48Z"/><path class="cls-10" d="M1075.06,433c2.84,0,2.84-4.4,0-4.4S1072.22,433,1075.06,433Z"/><path class="cls-10" d="M1087.69,388c2.83,0,2.84-4.41,0-4.41S1084.85,388,1087.69,388Z"/><path class="cls-10" d="M1042.79,434.37c2.84,0,2.84-4.41,0-4.41S1040,434.37,1042.79,434.37Z"/><path class="cls-10" d="M1056.82,239.35c2.84,0,2.84-4.41,0-4.41S1054,239.35,1056.82,239.35Z"/><path class="cls-10" d="M1094.7,139.74c2.84,0,2.84-4.41,0-4.41S1091.86,139.74,1094.7,139.74Z"/><path class="cls-10" d="M1067.37,319.76c2.84,0,2.84-4.41,0-4.41S1064.53,319.76,1067.37,319.76Z"/><path class="cls-10" d="M1138.2,187.44c2.83,0,2.84-4.41,0-4.41S1135.35,187.44,1138.2,187.44Z"/><path class="cls-10" d="M1195.72,267.41c2.83,0,2.84-4.41,0-4.41S1192.88,267.41,1195.72,267.41Z"/><path class="cls-10" d="M1526,378.15c-.1-2.83-4.5-2.68-4.4.16S1526.12,381,1526,378.15Z"/><path class="cls-10" d="M1267.27,368.43c2.84,0,2.84-4.41,0-4.41S1264.43,368.43,1267.27,368.43Z"/><path class="cls-10" d="M1511.7,337c-.1-2.84-4.51-2.69-4.41.15S1511.8,339.86,1511.7,337Z"/><path class="cls-10" d="M1315,215.5c2.84,0,2.84-4.41,0-4.41S1312.13,215.5,1315,215.5Z"/><path class="cls-10" d="M1366.58,332.35c2.84,0,2.84-4.41,0-4.41S1363.74,332.35,1366.58,332.35Z"/><path class="cls-10" d="M1425.15,329.19c2.83,0,2.84-4.4,0-4.4S1422.31,329.19,1425.15,329.19Z"/><path class="cls-10" d="M1305,324.93c2.84,0,2.84-4.4,0-4.4S1302.15,324.93,1305,324.93Z"/><path class="cls-10" d="M1078.77,280.64c2.83,0,2.84-4.41,0-4.41S1075.93,280.64,1078.77,280.64Z"/><path class="cls-10" d="M688.6,225.63c2.83,0,2.84-4.41,0-4.41S685.75,225.63,688.6,225.63Z"/><path class="cls-10" d="M914.14,241.56c2.83,0,2.84-4.41,0-4.41S911.3,241.56,914.14,241.56Z"/><path class="cls-10" d="M1361.35,334c2.84,0,2.84-4.41,0-4.41S1358.51,334,1361.35,334Z"/><path class="cls-10" d="M1470.13,385.71c-.1-2.83-4.5-2.68-4.4.15S1470.23,388.55,1470.13,385.71Z"/><path class="cls-10" d="M930.5,286.18c2.84,0,2.85-4.41,0-4.41S927.66,286.18,930.5,286.18Z"/><path class="cls-10" d="M1494.13,403.93c-.1-2.84-4.5-2.69-4.41.15S1494.23,406.77,1494.13,403.93Z"/><path class="cls-10" d="M1256,296.87c2.84,0,2.85-4.4,0-4.4S1253.2,296.87,1256,296.87Z"/><path class="cls-10" d="M1458,400.17c-.1-2.83-4.5-2.68-4.41.16S1458.1,403,1458,400.17Z"/><path class="cls-10" d="M995.82,474c2.83,0,2.84-4.4,0-4.4S993,474,995.82,474Z"/><path class="cls-10" d="M1569.39,373.84c-.1-2.84-4.5-2.69-4.4.15S1569.49,376.68,1569.39,373.84Z"/><path class="cls-10" d="M1620.65,394.52c-.1-2.84-4.51-2.69-4.41.15S1620.75,397.35,1620.65,394.52Z"/><path class="cls-10" d="M1122.76,465.23c2.84,0,2.84-4.41,0-4.41S1119.92,465.23,1122.76,465.23Z"/><path class="cls-10" d="M1104.52,531.17c2.84,0,2.84-4.41,0-4.41S1101.68,531.17,1104.52,531.17Z"/><path class="cls-10" d="M884.26,344.58c2.83,0,2.84-4.41,0-4.41S881.41,344.58,884.26,344.58Z"/><path class="cls-10" d="M901.09,406.31c2.84,0,2.84-4.41,0-4.41S898.25,406.31,901.09,406.31Z"/><path class="cls-10" d="M847.78,407.71c2.83,0,2.84-4.41,0-4.41S844.94,407.71,847.78,407.71Z"/><path class="cls-10" d="M795.87,418.93c2.83,0,2.84-4.4,0-4.4S793,418.93,795.87,418.93Z"/><path class="cls-10" d="M816.91,500.93a0,0,0,1,0,0,0S816.89,500.93,816.91,500.93Z"/><path class="cls-10" d="M835.15,525.56c2.84,0,2.84-4.41,0-4.41S832.31,525.56,835.15,525.56Z"/><path class="cls-10" d="M801.48,555c2.84,0,2.84-4.41,0-4.41S798.64,555,801.48,555Z"/><path class="cls-10" d="M759.39,525.56c2.84,0,2.84-4.41,0-4.41S756.55,525.56,759.39,525.56Z"/><path class="cls-10" d="M794.46,476.46c2.84,0,2.85-4.41,0-4.41S791.62,476.46,794.46,476.46Z"/><path class="cls-10" d="M745.15,239.46c2.84,0,2.84-4.41,0-4.41S742.31,239.46,745.15,239.46Z"/><path class="cls-10" d="M697.45,233.85c2.84,0,2.84-4.41,0-4.41S694.61,233.85,697.45,233.85Z"/><path class="cls-10" d="M972.64,656c2.84,0,2.84-4.41,0-4.41S969.8,656,972.64,656Z"/><path class="cls-10" d="M1033.44,603.31c2.83,0,2.84-4.41,0-4.41S1030.6,603.31,1033.44,603.31Z"/><path class="cls-10" d="M1099.59,474.25c2.83,0,2.84-4.41,0-4.41S1096.75,474.25,1099.59,474.25Z"/><path class="cls-10" d="M1134,590.1c2.83,0,2.84-4.41,0-4.41S1131.14,590.1,1134,590.1Z"/><path class="cls-10" d="M961.42,696.72c2.84,0,2.84-4.4,0-4.4S958.58,696.72,961.42,696.72Z"/><path class="cls-10" d="M887.06,726.19c2.84,0,2.84-4.41,0-4.41S884.22,726.19,887.06,726.19Z"/><path class="cls-10" d="M894.08,779.5c2.83,0,2.84-4.41,0-4.41S891.23,779.5,894.08,779.5Z"/><path class="cls-10" d="M951.6,780.9c2.83,0,2.84-4.41,0-4.41S948.76,780.9,951.6,780.9Z"/><path class="cls-10" d="M864.4,246.48c2.84,0,2.84-4.41,0-4.41S861.56,246.48,864.4,246.48Z"/><path class="cls-10" d="M1768.6,411.92c2.84,0,2.84-4.41,0-4.41S1765.76,411.92,1768.6,411.92Z"/><path class="cls-10" d="M1800.4,486.75c2.84,0,2.84-4.41,0-4.41S1797.56,486.75,1800.4,486.75Z"/><path class="cls-10" d="M1699.39,572.79c2.83,0,2.84-4.4,0-4.4S1696.55,572.79,1699.39,572.79Z"/><path class="cls-10" d="M1626.43,509.19c2.84,0,2.84-4.41,0-4.41S1623.59,509.19,1626.43,509.19Z"/><path class="cls-10" d="M1706.87,604.6c2.84,0,2.84-4.41,0-4.41S1704,604.6,1706.87,604.6Z"/><path class="cls-10" d="M1725.58,572.79c2.83,0,2.84-4.4,0-4.4S1722.73,572.79,1725.58,572.79Z"/><path class="cls-10" d="M1761.12,608.34c2.83,0,2.84-4.41,0-4.41S1758.28,608.34,1761.12,608.34Z"/><path class="cls-10" d="M1755.51,879.58c2.83,0,2.84-4.41,0-4.41S1752.66,879.58,1755.51,879.58Z"/><path class="cls-10" d="M1607.73,795.4c2.83,0,2.84-4.41,0-4.41S1604.88,795.4,1607.73,795.4Z"/><path class="cls-10" d="M1463.69,836.55c2.83,0,2.84-4.4,0-4.4S1460.84,836.55,1463.69,836.55Z"/><path class="cls-10" d="M1484.26,909.51c2.84,0,2.84-4.41,0-4.41S1481.42,909.51,1484.26,909.51Z"/><path class="cls-10" d="M1433.76,935.7c2.83,0,2.84-4.41,0-4.41S1430.91,935.7,1433.76,935.7Z"/><path class="cls-10" d="M1461.82,997.43c2.83,0,2.84-4.41,0-4.41S1459,997.43,1461.82,997.43Z"/><path class="cls-10" d="M1458.07,1033c2.84,0,2.84-4.41,0-4.41S1455.23,1033,1458.07,1033Z"/><path class="cls-10" d="M1607.72,898.29c2.84,0,2.85-4.41,0-4.41S1604.88,898.29,1607.72,898.29Z"/><path class="cls-10" d="M1546,729.93c2.84,0,2.85-4.41,0-4.41S1543.15,729.93,1546,729.93Z"/><path class="cls-10" d="M1433.76,627c2.83,0,2.84-4.41,0-4.41S1430.91,627,1433.76,627Z"/><path class="cls-10" d="M1357.06,694.39c2.84,0,2.84-4.41,0-4.41S1354.22,694.39,1357.06,694.39Z"/><path class="cls-10" d="M1402,705.61c2.84,0,2.85-4.41,0-4.41S1399.11,705.61,1402,705.61Z"/><path class="cls-10" d="M1233.6,812.24c2.83,0,2.84-4.41,0-4.41S1230.76,812.24,1233.6,812.24Z"/><path class="cls-10" d="M1164.38,795.4c2.84,0,2.84-4.41,0-4.41S1161.54,795.4,1164.38,795.4Z"/><path class="cls-10" d="M1033.44,812.24c2.83,0,2.84-4.41,0-4.41S1030.6,812.24,1033.44,812.24Z"/><path class="cls-10" d="M1065.24,885.19c2.84,0,2.84-4.41,0-4.41S1062.4,885.19,1065.24,885.19Z"/><path class="cls-10" d="M984.8,860.87c2.84,0,2.84-4.41,0-4.41S982,860.87,984.8,860.87Z"/><path class="cls-10" d="M831.41,806.62c2.84,0,2.84-4.4,0-4.4S828.57,806.62,831.41,806.62Z"/><path class="cls-10" d="M966.1,937.57c2.83,0,2.84-4.41,0-4.41S963.25,937.57,966.1,937.57Z"/><path class="cls-10" d="M1039.05,952.53c2.84,0,2.84-4.4,0-4.4S1036.21,952.53,1039.05,952.53Z"/><path class="cls-10" d="M1173.74,952.53c2.83,0,2.84-4.4,0-4.4S1170.9,952.53,1173.74,952.53Z"/><path class="cls-10" d="M1065.24,1053.55c2.84,0,2.84-4.41,0-4.41S1062.4,1053.55,1065.24,1053.55Z"/><path class="cls-10" d="M1338.35,1014.27c2.84,0,2.84-4.41,0-4.41S1335.51,1014.27,1338.35,1014.27Z"/><path class="cls-10" d="M1312.16,909.51c2.84,0,2.84-4.41,0-4.41S1309.32,909.51,1312.16,909.51Z"/><path class="cls-10" d="M240.29,771.08c2.83,0,2.84-4.41,0-4.41S237.45,771.08,240.29,771.08Z"/><path class="cls-10" d="M265.54,830c2.84,0,2.84-4.41,0-4.41S262.7,830,265.54,830Z"/><path class="cls-10" d="M139.27,748.63c2.84,0,2.84-4.4,0-4.4S136.43,748.63,139.27,748.63Z"/><path class="cls-10" d="M192.59,880.51c2.83,0,2.84-4.4,0-4.4S189.74,880.51,192.59,880.51Z"/><path class="cls-10" d="M386.2,734.6c2.83,0,2.84-4.4,0-4.4S383.36,734.6,386.2,734.6Z"/><path class="cls-10" d="M467.57,636.4c2.84,0,2.84-4.41,0-4.41S464.73,636.4,467.57,636.4Z"/><path class="cls-10" d="M419.87,468c2.84,0,2.84-4.41,0-4.41S417,468,419.87,468Z"/><path class="cls-10" d="M142.08,473.65c2.84,0,2.84-4.41,0-4.41S139.24,473.65,142.08,473.65Z"/><path class="cls-10" d="M201,504.52c2.84,0,2.85-4.41,0-4.41S198.16,504.52,201,504.52Z"/><path class="cls-10" d="M1850.91,487.68c2.83,0,2.84-4.41,0-4.41S1848.07,487.68,1850.91,487.68Z"/><path class="cls-10" d="M1876.16,448.4c2.84,0,2.84-4.41,0-4.41S1873.32,448.4,1876.16,448.4Z"/><path class="cls-10" d="M1761.12,476.46c2.83,0,2.84-4.41,0-4.41S1758.28,476.46,1761.12,476.46Z"/><path class="cls-10" d="M1794.79,560.64c2.84,0,2.84-4.41,0-4.41S1792,560.64,1794.79,560.64Z"/><path class="cls-10" d="M1890.19,571.86c2.84,0,2.84-4.41,0-4.41S1887.35,571.86,1890.19,571.86Z"/></g></g></svg>