<?xml version="1.0" encoding="utf-8"?>
<!-- Generator: Adobe Illustrator 26.0.1, SVG Export Plug-In . SVG Version: 6.00 Build 0)  -->
<svg version="1.1" id="Ebene_1" xmlns="http://www.w3.org/2000/svg" xmlns:xlink="http://www.w3.org/1999/xlink" x="0px" y="0px"
	 viewBox="0 0 1080 1080" style="enable-background:new 0 0 1080 1080;" xml:space="preserve">
<style type="text/css">
	.st0{fill:#FFFFFF;}
</style>
<g>
	<g>
		<path class="st0" d="M106.67,248.07c-82.7,202.41-40.25,394.74,147.2,510.78c25.72,15.93,52.18,29.64,78.19,41.94
			c72.4,34.23,145.63,59.55,200.24,90.42c27.58,15.52,50.29,31.86,69.18,56.67l3.9-2.8c-19.5-25.51-42.82-42.19-70.84-57.87
			c-55.08-30.96-128.32-56.06-200.81-90.13c-25.94-12.2-52.31-25.79-77.91-41.56C69.85,640.95,27.04,450.24,109.08,248.79
			L106.67,248.07z"/>
		<g>
			<path class="st0" d="M399.28,748.22c7.36,4.93,19.17,12.42,31.43,22.66c40.55,33.89,41.83,57.12,37.01,77.19
				C439.76,826.42,402.71,817.87,399.28,748.22z"/>
			<path class="st0" d="M332.49,720.78c33.52,25.02,71.22,56.47,63.64,97.52c-4.15-2.71-14.23-8.54-24.7-16.28
				c-10.47-7.74-21.29-17.44-27-27.66C336.25,759.83,331.82,741.24,332.49,720.78z"/>
			<path class="st0" d="M271.44,689.01c33.56,30.85,60.91,62.41,54.24,98.17C292.56,765.28,262.57,741.19,271.44,689.01z"/>
			<path class="st0" d="M218.24,650.61c30.69,38.62,47.04,70.64,39.97,100.32C222.45,723.97,202.93,692.4,218.24,650.61z"/>
			<path class="st0" d="M175.1,604.08c15.44,29.37,32.07,71.25,21.21,102.38C158.38,667.52,157.05,631.91,175.1,604.08z"/>
			<path class="st0" d="M143.61,548.75c8.4,31.29,15.67,74.06,0.32,102.79C121.42,616.95,114.39,577.58,143.61,548.75z"/>
			<path class="st0" d="M124.1,485.52c3.42,30.2,0.87,75.27-18.89,100.79C85.73,531.81,103.36,499.28,124.1,485.52z"/>
			<path class="st0" d="M117.29,418.35c-0.3,6.6-1.54,16.42-3.63,27.19c-4.75,24.19-13.88,50.91-31.73,68.25
				C73.11,456.96,94.24,428.52,117.29,418.35z"/>
			<path class="st0" d="M122.76,349.23c-3.74,21.15-18.49,64.95-49.08,88.62C74.96,379.89,100.29,355.29,122.76,349.23z"/>
			<path class="st0" d="M139.22,280.17c-8.23,27.92-28.31,61.25-59.62,81.28C87.08,325.6,102.49,285.07,139.22,280.17z"/>
			<path class="st0" d="M165.18,212.83c-11.01,27.67-32.56,54.99-67.39,73.93C104.16,269.38,122.46,213.4,165.18,212.83z"/>
		</g>
		<path class="st0" d="M171.33,130.4c-9.11,28.84-32.97,92.03-58.75,107.65C110.68,209.94,125.77,168.32,171.33,130.4z"/>
		<g>
			<path class="st0" d="M335.66,882.81c9.27,2.42,23.7,6.28,39.92,8.11c52.3,5.96,70.06-10.56,80.98-26.99
				c-6.64-1.09-45.94-13.22-70.39-7.36C369.22,860.64,352.46,869.84,335.66,882.81z"/>
			<path class="st0" d="M254.48,839.8c9.23,3.41,23.64,8.74,40.13,11.91c16.49,3.21,34.99,4.29,52.46,0.13
				c11.14-2.64,21.32-8.97,30.75-22.02c-3.6-0.62-14.92-4.11-28.39-7.02c-13.47-2.91-29.08-5.33-41.43-3.48
				C290.69,821.95,272.97,829.2,254.48,839.8z"/>
			<path class="st0" d="M175.07,785.53c8.76,5.01,22.51,12.7,38.76,18.31c49.68,17.28,72.02,4.25,85.91-11.05
				c-7.25-1.84-44.51-18.02-67.87-18.03C214.31,774.81,195.48,778.89,175.07,785.53z"/>
			<path class="st0" d="M103.94,715.07c7.39,7.07,19.38,17.73,34.38,26.82c43.99,26.72,69.83,19.2,87.05,6.01
				C193.44,734.05,182.34,711.72,103.94,715.07z"/>
			<path class="st0" d="M50.54,628.16c23.85,39.97,65.31,81.41,108.73,62.81C124.83,665.51,126.73,647.69,50.54,628.16z"/>
			<path class="st0" d="M21.22,532.5c2.75,9.15,7.43,23.47,15.48,38.28c23.67,43.72,48.81,51.87,71.19,49.46
				C82.12,588.45,90.31,571.6,21.22,532.5z"/>
			<path class="st0" d="M14.27,434.58c3.26,44.9,17.4,96.15,61.79,104.43C60.21,503.66,71.19,488.91,14.27,434.58z"/>
			<path class="st0" d="M27.28,339.36c-5.89,43.87-3.25,94.15,36.41,113.52C57,414.09,68.91,401.33,27.28,339.36z"/>
			<path class="st0" d="M56.21,249.91c-13.23,40.95-19.64,88.73,13.35,116.36C71.21,329.7,84.84,317.03,56.21,249.91z"/>
			<path class="st0" d="M97.6,167.07c-19.1,37.69-32.67,81.82-6.6,115.3C98.75,246.21,114.34,239.45,97.6,167.07z"/>
		</g>
	</g>
	<g>
		<path class="st0" d="M977.09,249.71c90.19,219.14,39.01,424.18-222.5,548.71c-25.92,12.34-51.44,23.3-75.69,33.6
			c-92.07,39.04-156.71,65.42-194.09,114.79l3.9,2.8c38.93-51.6,116.31-81.41,191.91-113.68c24.24-10.36,49.79-21.41,75.79-33.86
			c259.43-124.31,315.98-329.61,222.9-553.54L977.09,249.71z"/>
		<g>
			<path class="st0" d="M748.41,884.45c-9.26,2.39-23.65,6.2-39.84,8.01c-16.22,1.83-34.18,1.68-51.14-3.36
				c-10.82-3.22-20.67-10-29.77-23.62c3.64-0.59,15.14-3.98,28.8-6.38c13.65-2.41,29.45-3.91,41.53-1
				C714.93,862.18,731.65,871.43,748.41,884.45z"/>
			<path class="st0" d="M820.57,845.89c-28.31,10.1-60.39,17.67-90.25,10.54c-11.51-2.73-22.55-9.15-31.75-21.86
				c4.86-1.12,16.07-4.44,29.03-7.04C750.57,822.92,778.47,818.83,820.57,845.89z"/>
			<path class="st0" d="M891.71,799.1c-38.8,20.52-93.47,35.47-122.45,2.81c8.21-2.73,29.57-10.59,47.42-13.81
				C841.41,783.32,869.58,788.99,891.71,799.1z"/>
			<path class="st0" d="M957.64,740.46c-33.41,27.36-87.28,50.38-120.06,23.38C860.52,753.02,903.82,727.32,957.64,740.46z"/>
			<path class="st0" d="M1011.9,668.28c-26,34.38-74.09,67.68-111.31,48.7C920.38,702.72,960.92,667.91,1011.9,668.28z"/>
			<path class="st0" d="M1048.26,585.91c-15.14,38.16-54.53,80.95-94.29,73.24C969.39,641.5,1002.53,596.19,1048.26,585.91z"/>
			<path class="st0" d="M1065.52,500.01c-4.51,30.02-29.4,86.05-72.5,90.85C1003.9,568.99,1025.26,518.23,1065.52,500.01z"/>
			<path class="st0" d="M1065.59,413.71c1.9,38.17-14.51,87.37-49.8,102.09C1020.95,495.31,1030.9,437.64,1065.59,413.71z"/>
			<path class="st0" d="M1050.52,330.53c8.57,34.72,2.89,83.73-27.57,107.35C1023.96,419.47,1020.68,359.29,1050.52,330.53z"/>
			<path class="st0" d="M1023.24,252.22c13.25,29.72,16.88,76.43-7.71,107.96C1012.1,335.93,999.38,282.78,1023.24,252.22z"/>
			<path class="st0" d="M986.17,179.31c16.06,24.43,27.67,65.57,9.49,105.56C988.59,261.7,966.89,211.99,986.17,179.31z"/>
		</g>
		<path class="st0" d="M913,133.03c44.72,29.15,65.58,85.03,61.06,105.51C938.61,209.32,919.68,148.76,913,133.03z"/>
		<g>
			<path class="st0" d="M691.89,746.72c-38.29,25.8-78.68,55.96-68.26,99.8C651.73,824.68,688.69,816.32,691.89,746.72z"/>
			<path class="st0" d="M765.38,714.71c-38.59,30.4-70.46,57.9-62.55,98.64c2.9-2.17,13.11-8.03,23.99-16.09
				C750.31,779.89,766.48,761.37,765.38,714.71z"/>
			<path class="st0" d="M831.04,676.96c-32.84,34.42-59.49,61.61-50.76,100.8c2.72-2.25,12.31-8.54,22.28-17.15
				C823.91,742.22,838.3,721.3,831.04,676.96z"/>
			<path class="st0" d="M885.73,630.73c-28.12,45.04-43.53,69.87-32.43,104.15C871.62,715.14,908.87,692.03,885.73,630.73z"/>
			<path class="st0" d="M926.69,574.48c-18.08,53.72-23.79,77.35-8.96,106.27c0.89-1.44,3.02-4.28,5.78-8.07
				c2.62-3.9,5.97-8.67,8.95-14.19C946.57,633.18,949.5,608.54,926.69,574.48z"/>
			<path class="st0" d="M952.79,507.8c-2.44,27.75-9.54,68.98,8.79,97.2c1.76,2.76,3.81,5.61,6.2,8.56
				c1.36-3.97,17.23-36.83,11.27-61.6C975.37,536.47,966.16,521.38,952.79,507.8z"/>
			<path class="st0" d="M963.58,435.04c4.53,47.62,8.15,77.85,35.79,100.68c0.17-1.63,0.74-5,1.47-9.46
				c0.39-2.22,0.64-4.76,0.97-7.47c0.14-1.36,0.29-2.76,0.44-4.21c0.12-1.45,0.19-2.94,0.27-4.46c0.66-12.13-0.42-26.17-5.15-36.44
				C990.77,459.27,979.03,446.12,963.58,435.04z"/>
			<path class="st0" d="M959.02,359.47c3.02,11.02,12.93,53.36,31.57,75.48c1.69,2.05,3.59,4.05,5.73,6.02
				c4.34,3.94,9.46,7.74,16.02,11.45C1009.44,427.14,1015.84,389.24,959.02,359.47z"/>
			<path class="st0" d="M940.71,283.78c17.21,39.38,31.41,70.54,66.92,84.17C1000.05,343.01,1000.48,307.06,940.71,283.78z"/>
			<path class="st0" d="M910.71,210.35c22.82,38.73,40.94,65.94,76.89,75.11C976.17,260.15,970.79,227.09,910.71,210.35z"/>
		</g>
	</g>
</g>
</svg>
